<?xml version="1.0" encoding="UTF-8"?>
<svg xmlns="http://www.w3.org/2000/svg" xmlns:xlink="http://www.w3.org/1999/xlink" width="20pt" height="20pt" viewBox="0 0 20 20" version="1.1">
<g id="surface7934757">
<path style=" stroke:none;fill-rule:nonzero;fill:rgb(100%,100%,100%);fill-opacity:1;" d="M 9.082031 1.75 C 5.25 2.167969 2.167969 5.25 1.75 9 C 1.25 13.167969 3.832031 16.75 7.5 17.917969 L 7.5 16 C 7.5 16 7.167969 16.082031 6.75 16.082031 C 5.582031 16.082031 5.082031 15.082031 5 14.5 C 4.917969 14.167969 4.75 13.917969 4.5 13.667969 C 4.25 13.582031 4.167969 13.582031 4.167969 13.5 C 4.167969 13.332031 4.417969 13.332031 4.5 13.332031 C 5 13.332031 5.417969 13.917969 5.582031 14.167969 C 6 14.832031 6.5 15 6.75 15 C 7.082031 15 7.332031 14.917969 7.5 14.832031 C 7.582031 14.25 7.832031 13.667969 8.332031 13.332031 C 6.417969 12.917969 5 11.832031 5 10 C 5 9.082031 5.417969 8.167969 6 7.5 C 5.917969 7.332031 5.832031 6.917969 5.832031 6.332031 C 5.832031 6 5.832031 5.5 6.082031 5 C 6.082031 5 7.25 5 8.417969 6.082031 C 8.832031 5.917969 9.417969 5.832031 10 5.832031 C 10.582031 5.832031 11.167969 5.917969 11.667969 6.082031 C 12.75 5 14 5 14 5 C 14.167969 5.5 14.167969 6 14.167969 6.332031 C 14.167969 7 14.082031 7.332031 14 7.5 C 14.582031 8.167969 15 9 15 10 C 15 11.832031 13.582031 12.917969 11.667969 13.332031 C 12.167969 13.75 12.5 14.5 12.5 15.25 L 12.5 18 C 15.917969 16.917969 18.332031 13.75 18.332031 10.082031 C 18.332031 5.082031 14.082031 1.167969 9.082031 1.75 Z M 9.082031 1.75 "/>
</g>
</svg>
