<?xml version="1.0" encoding="UTF-8"?>
<svg xmlns="http://www.w3.org/2000/svg" xmlns:xlink="http://www.w3.org/1999/xlink" width="20pt" height="20pt" viewBox="0 0 20 20" version="1.1">
<g id="surface8094991">
<path style=" stroke:none;fill-rule:nonzero;fill:rgb(100%,100%,100%);fill-opacity:1;" d="M 6 16.667969 L 2.667969 16.667969 L 2.667969 6.667969 L 6 6.667969 Z M 4.335938 5.332031 C 3.410156 5.332031 2.667969 4.585938 2.667969 3.664062 C 2.667969 2.746094 3.414062 2 4.335938 2 C 5.253906 2 6 2.746094 6 3.664062 C 6 4.585938 5.253906 5.332031 4.335938 5.332031 Z M 18 16.667969 L 14.796875 16.667969 L 14.796875 11.800781 C 14.796875 10.640625 14.773438 9.148438 13.128906 9.148438 C 11.460938 9.148438 11.203125 10.410156 11.203125 11.714844 L 11.203125 16.667969 L 8 16.667969 L 8 6.660156 L 11.074219 6.660156 L 11.074219 8.027344 L 11.121094 8.027344 C 11.546875 7.238281 12.59375 6.410156 14.152344 6.410156 C 17.398438 6.410156 18 8.484375 18 11.179688 Z M 18 16.667969 "/>
</g>
</svg>
